# This file uses centimeters as units for non-parametric coordinates.

mtllib potolok_low.mtl
g default
v 481.674530 356.870728 311.027771
v -286.713715 356.870728 310.807648
v 481.553741 356.870728 -343.071899
v -286.768524 356.870728 -343.091858
vt 0.001696 0.998008
vt 0.001981 0.002063
vt 0.849532 0.001992
vt 0.849506 0.997851
vn 0.000000 -1.000000 0.000000
vn 0.000000 -1.000000 0.000000
vn 0.000000 -1.000000 0.000000
vn 0.000000 -1.000000 0.000000
s off
g potolok_low
usemtl initialShadingGroup
f 1/1/1 2/2/2 4/3/3 3/4/4
